# xmcd
#
# Track frame offsets: 
#        187
#        19007
#        37602
#        52572
#        67780
#        87355
#        105837
#        122460
#        139865
#        157210
#
# Disc length: 2311 seconds
#
# Revision: 4
# Processed by: cddbd v1.5.2PL0 Copyright (c) Steve Scherf et al.
# Submitted via: ExactAudioCopyFreeDBPlugin 1.0
#
DISCID=6809050a
DTITLE=Alabama - Christmas
DYEAR=1985
DGENRE=Country
TTITLE0=Santa Claus (I Still Believe In You)
TTITLE1=Joseph And Mary's Boy
TTITLE2=Happy Holidays
TTITLE3=Christmas Memories
TTITLE4=Tonight Is Christmas
TTITLE5=Thistlehair The Christmas Bear
TTITLE6=Tennessee Christmas
TTITLE7=A Candle In The Window
TTITLE8=Homecoming Christmas
TTITLE9=Christmas In Dixie
EXTD=YEAR: 2002  ID3G:   2
EXTT0=
EXTT1=
EXTT2=
EXTT3=
EXTT4=
EXTT5=
EXTT6=
EXTT7=
EXTT8=
EXTT9=
PLAYORDER=
